<?xml version="1.0" encoding="UTF-8"?>
<svg xmlns="http://www.w3.org/2000/svg" width="359" height="85" viewBox="0 0 359 85" fill="none">
  <path d="M0.5 0L8.04309 10.1966C8.80587 11.1391 9.14489 12.4244 9.14489 13.624V54.9244C9.14489 64.3498 14.7386 72.0615 23.2988 74.7177C29.3163 76.5171 39.2325 76.8599 43.7244 82.6008L45.589 85L47.4536 82.6008C51.9456 76.8599 61.8617 76.5171 67.8793 74.7177C76.5241 72.0615 82.0331 64.3498 82.0331 54.9244V13.624C82.0331 12.4244 82.4569 11.1391 83.1349 10.1966L90.678 0H0.5Z" fill="white"></path>
  <path d="M86.0137 2.48438L81.3523 8.73941C80.3352 10.1104 79.7419 11.8241 79.7419 13.6235V54.9239C79.7419 63.1497 75.0805 70.0045 67.2831 72.4037C61.4351 74.2031 50.8409 74.5459 45.6709 81.058C40.5009 74.5459 29.9067 74.2031 24.0587 72.4037C16.2614 70.0045 11.5999 63.1497 11.5999 54.9239V13.6235C11.5999 11.8241 11.0066 10.1104 9.98958 8.73941L5.32812 2.48438H86.0137Z" fill="#1A5632"></path>
  <path d="M25.42 67.7752C26.6913 68.1179 28.3016 68.4607 30.0814 68.8891C34.9124 69.9173 40.9299 71.1169 45.6761 74.5444C50.4223 71.1169 56.4399 69.8317 61.2708 68.8891C63.0506 68.5464 64.661 68.2036 65.9323 67.7752C71.526 66.0615 75.0009 61.1774 75.0009 54.9224V13.622C75.0009 11.3942 75.5942 9.16633 76.696 7.28125H14.6562C15.758 9.25202 16.3513 11.3942 16.3513 13.622V54.9224C16.3513 61.1774 19.8262 66.0615 25.42 67.7752ZM73.3906 9.50907C73.0516 10.88 72.7973 12.251 72.7973 13.622V54.9224C72.7973 60.2349 70.0005 64.1764 65.2542 65.6331C64.0677 65.9758 62.5421 66.3185 60.8471 66.6613C56.1856 67.6038 50.5071 68.8034 45.6761 71.8024C40.8452 68.7177 35.1667 67.6038 30.5052 66.6613C28.8101 66.3185 27.1998 65.9758 26.098 65.6331C21.3518 64.1764 18.5549 60.1492 18.5549 54.9224V13.622C18.5549 12.251 18.3854 10.7944 17.9616 9.50907H73.3906Z" fill="#FFC629"></path>
  <path d="M52.7919 26.9914C52.7919 26.1346 52.4529 25.8775 51.4358 25.8775H39.4856C38.4685 25.8775 38.1295 26.1346 38.1295 26.9914V31.19C38.1295 32.3896 38.638 32.818 40.4179 33.0751L53.3004 35.3029C59.2332 36.3312 62.9624 38.3019 62.9624 43.2717V49.6981C62.9624 54.9249 59.9112 57.4098 53.5547 57.4098H37.7905C31.4339 57.4098 28.3828 54.9249 28.3828 49.6981V45.4138L37.7905 47.1275V49.184C37.7905 50.0408 38.1295 50.2979 39.1465 50.2979H52.0291C53.0462 50.2979 53.3852 50.0408 53.3852 49.184V44.557C53.3852 43.3574 52.8767 42.9289 51.0968 42.6719L38.2143 40.4441C32.2815 39.4158 28.5523 37.4451 28.5523 32.4753V26.4773C28.5523 21.2505 31.6035 18.7656 37.96 18.7656H52.7919C59.1484 18.7656 62.1996 21.2505 62.1996 26.4773V30.4189L52.7919 28.7908V26.9914Z" fill="white"></path>
  <path d="M358.497 75.8281H93.7266V77.7989H358.497V75.8281Z" fill="#FFC629"></path>
  <path d="M93.7266 34.3621V31.1918H98.727V34.0194C98.727 34.5335 98.8965 34.7049 99.4051 34.7049H106.101C106.609 34.7049 106.779 34.5335 106.779 34.0194V30.9347C106.779 30.1636 106.524 29.9065 105.592 29.7351L98.8965 28.2785C95.7607 27.593 93.7266 26.3077 93.7266 23.0517V19.1101C93.7266 15.6827 95.3369 14.0547 98.727 14.0547H106.44C109.83 14.0547 111.44 15.6827 111.44 19.1101V22.0234H106.609V19.4529C106.609 18.9388 106.44 18.7674 105.931 18.7674H99.7441C99.2356 18.7674 99.066 18.9388 99.066 19.4529V22.1948C99.066 22.966 99.3203 23.223 100.253 23.3944L106.948 24.8511C110.084 25.5365 112.118 26.8218 112.118 30.0779V34.2765C112.118 37.7039 110.508 39.3319 107.118 39.3319H98.8965C95.3369 39.5033 93.7266 37.8753 93.7266 34.3621Z" fill="#1A5632"></path>
  <path d="M115.93 34.3621V19.1101C115.93 15.6827 117.54 14.0547 120.93 14.0547H130.168C133.558 14.0547 135.169 15.6827 135.169 19.1101V34.3621C135.169 37.7896 133.558 39.4176 130.168 39.4176H120.93C117.54 39.5033 115.93 37.8753 115.93 34.3621ZM129.321 34.7049C129.829 34.7049 129.999 34.5335 129.999 34.0194V19.6242C129.999 19.1101 129.829 18.9388 129.321 18.9388H121.862C121.354 18.9388 121.184 19.1101 121.184 19.6242V33.9337C121.184 34.4478 121.354 34.6192 121.862 34.6192H129.321V34.7049Z" fill="#1A5632"></path>
  <path d="M139.406 34.3621V14.0547H144.576V33.9337C144.576 34.4478 144.746 34.6192 145.254 34.6192H152.289C152.797 34.6192 152.967 34.4478 152.967 33.9337V14.0547H158.137V34.3621C158.137 37.7896 156.527 39.4176 153.136 39.4176H144.407C141.017 39.5033 139.406 37.8753 139.406 34.3621Z" fill="#1A5632"></path>
  <path d="M168.646 18.7674H161.781V14.0547H180.597V18.7674H173.816V39.5033H168.646V18.7674Z" fill="#1A5632"></path>
  <path d="M184.242 14.0547H189.412V24.0799H198.396V14.0547H203.566V39.5033H198.396V28.8783H189.412V39.5033H184.242V14.0547Z" fill="#1A5632"></path>
  <path d="M208.141 14.0547H225.091V18.8531H213.311V24.1656H222.888V28.8783H213.311V34.7049H225.091V39.5033H208.141V14.0547Z" fill="#1A5632"></path>
  <path d="M242.977 33.9335H234.333L232.807 39.4173H227.383L235.011 13.9688H242.554L250.182 39.4173H244.503L242.977 33.9335ZM241.621 29.1351L238.655 18.5101L235.689 29.2208H241.621V29.1351Z" fill="#1A5632"></path>
  <path d="M252.891 34.3621V31.1918H257.891V34.0194C257.891 34.5335 258.061 34.7049 258.569 34.7049H265.265C265.773 34.7049 265.943 34.5335 265.943 34.0194V30.9347C265.943 30.1636 265.688 29.9065 264.756 29.7351L258.061 28.2785C254.925 27.593 252.891 26.3077 252.891 23.0517V19.1101C252.891 15.6827 254.501 14.0547 257.891 14.0547H265.604C268.994 14.0547 270.604 15.6827 270.604 19.1101V22.0234H265.604V19.4529C265.604 18.9388 265.434 18.7674 264.926 18.7674H258.739C258.23 18.7674 258.061 18.9388 258.061 19.4529V22.1948C258.061 22.966 258.315 23.223 259.247 23.3944L265.943 24.8511C269.079 25.5365 271.113 26.8218 271.113 30.0779V34.2765C271.113 37.7039 269.502 39.3319 266.112 39.3319H257.891C254.501 39.5033 252.891 37.8753 252.891 34.3621Z" fill="#1A5632"></path>
  <path d="M280.351 18.7674H273.57V14.0547H292.386V18.7674H285.521V39.5033H280.351V18.7674Z" fill="#1A5632"></path>
  <path d="M295.273 14.0547H312.224V18.8531H300.443V24.1656H310.021V28.8783H300.443V34.7049H312.224V39.5033H295.273V14.0547Z" fill="#1A5632"></path>
  <path d="M335.359 39.5033H329.765L325.612 30.5063H321.459V39.5033H316.289V14.0547H329.511C332.901 14.0547 334.511 15.6827 334.511 19.1101V25.2795C334.511 28.1071 333.409 29.8208 331.036 30.2492L335.359 39.5033ZM328.663 25.8793C329.172 25.8793 329.341 25.7079 329.341 25.1938V19.5386C329.341 19.0244 329.172 18.8531 328.663 18.8531H321.459V25.965H328.663V25.8793Z" fill="#1A5632"></path>
  <path d="M338.578 14.0547H343.918L353.495 30.4206V14.0547H358.495V39.5033H353.495L343.579 22.5376V39.5033H338.578V14.0547Z" fill="#1A5632"></path>
  <path d="M93.7266 47.1328H96.1844V59.1288H102.541V61.3566H93.7266V47.1328Z" fill="#1A5632"></path>
  <path d="M107.031 58.529V49.9604C107.031 47.9897 107.964 47.1328 109.828 47.1328H114.744C116.693 47.1328 117.541 48.0753 117.541 49.9604V58.529C117.541 60.4997 116.608 61.3566 114.744 61.3566H109.828C107.964 61.3566 107.031 60.4141 107.031 58.529ZM114.49 59.1288C114.998 59.1288 115.252 58.9574 115.252 58.3576V50.1318C115.252 49.6177 115.083 49.3606 114.49 49.3606H110.252C109.659 49.3606 109.489 49.532 109.489 50.1318V58.3576C109.489 58.8717 109.659 59.1288 110.252 59.1288H114.49Z" fill="#1A5632"></path>
  <path d="M122.539 58.529V47.1328H124.912V58.3576C124.912 58.8717 125.082 59.1288 125.675 59.1288H129.658C130.167 59.1288 130.421 58.9574 130.421 58.3576V47.1328H132.794V58.529C132.794 60.4997 131.862 61.3566 129.997 61.3566H125.336C123.471 61.3566 122.539 60.4141 122.539 58.529Z" fill="#1A5632"></path>
  <path d="M140.85 47.1328H138.477V61.3566H140.85V47.1328Z" fill="#1A5632"></path>
  <path d="M146.188 58.529V56.901H148.561V58.4433C148.561 59.0431 148.73 59.2145 149.323 59.2145H153.137C153.646 59.2145 153.9 59.0431 153.9 58.4433V56.7296C153.9 56.0441 153.646 55.8727 152.968 55.7014L149.154 54.8445C147.459 54.4161 146.272 53.8163 146.272 51.9312V49.9604C146.272 47.9897 147.205 47.1328 149.069 47.1328H153.307C155.256 47.1328 156.104 48.0753 156.104 49.9604V51.5028H153.731V50.0461C153.731 49.4463 153.561 49.2749 152.968 49.2749H149.408C148.815 49.2749 148.645 49.4463 148.645 50.0461V51.5885C148.645 52.2739 148.9 52.4453 149.578 52.6167L153.392 53.4735C155.087 53.902 156.273 54.5018 156.273 56.3868V58.529C156.273 60.4997 155.341 61.3566 153.476 61.3566H148.984C147.12 61.3566 146.188 60.4141 146.188 58.529Z" fill="#1A5632"></path>
  <path d="M164.068 47.1328H161.695V61.3566H164.068V47.1328Z" fill="#1A5632"></path>
  <path d="M177.463 57.8435H172.293L171.191 61.3566H168.648L173.225 47.1328H176.615L181.192 61.3566H178.565L177.463 57.8435ZM176.785 55.6157L174.835 49.2749L172.886 55.6157H176.785Z" fill="#1A5632"></path>
  <path d="M185.344 47.1328H187.886L193.904 57.2437V47.1328H196.277V61.3566H193.904L187.632 50.903V61.3566H185.344V47.1328Z" fill="#1A5632"></path>
  <path d="M209.666 57.8435H204.496L203.394 61.3566H200.852L205.428 47.1328H208.818L213.395 61.3566H210.768L209.666 57.8435ZM208.903 55.6157L206.954 49.2749L205.005 55.6157H208.903Z" fill="#1A5632"></path>
  <path d="M225.438 58.529V47.1328H227.811V58.3576C227.811 58.8717 227.98 59.1288 228.573 59.1288H232.557C233.065 59.1288 233.32 58.9574 233.32 58.3576V47.1328H235.693V58.529C235.693 60.4997 234.76 61.3566 232.896 61.3566H228.234C226.37 61.3566 225.438 60.4141 225.438 58.529Z" fill="#1A5632"></path>
  <path d="M241.367 47.1328H243.91L249.927 57.2437V47.1328H252.216V61.3566H249.843L243.656 50.903V61.3566H241.367V47.1328Z" fill="#1A5632"></path>
  <path d="M260.272 47.1328H257.898V61.3566H260.272V47.1328Z" fill="#1A5632"></path>
  <path d="M265.266 47.1328H267.893L271.198 58.6147L274.504 47.1328H277.131L272.554 61.3566H269.758L265.266 47.1328Z" fill="#1A5632"></path>
  <path d="M281.711 47.1328H290.949V49.3606H284.084V52.9594H289.763V55.1872H284.084V59.1288H290.949V61.3566H281.711V47.1328Z" fill="#1A5632"></path>
  <path d="M306.291 61.3566H303.663L301.036 56.0441H298.154V61.3566H295.781V47.1328H302.985C304.935 47.1328 305.782 48.0753 305.782 49.9604V53.1308C305.782 54.8445 305.104 55.787 303.579 55.9584L306.291 61.3566ZM302.731 53.8163C303.24 53.8163 303.494 53.6449 303.494 53.0451V50.0461C303.494 49.532 303.324 49.2749 302.731 49.2749H298.239V53.8163H302.731Z" fill="#1A5632"></path>
  <path d="M310.695 58.529V56.901H313.068V58.4433C313.068 59.0431 313.238 59.2145 313.831 59.2145H317.645C318.154 59.2145 318.408 59.0431 318.408 58.4433V56.7296C318.408 56.0441 318.154 55.8727 317.476 55.7014L313.662 54.8445C311.967 54.4161 310.78 53.8163 310.78 51.9312V49.9604C310.78 47.9897 311.712 47.1328 313.577 47.1328H317.815C319.764 47.1328 320.612 48.0753 320.612 49.9604V51.5028H318.238V50.0461C318.238 49.4463 318.069 49.2749 317.476 49.2749H313.916C313.323 49.2749 313.153 49.4463 313.153 50.0461V51.5885C313.153 52.2739 313.407 52.4453 314.085 52.6167L317.899 53.4735C319.594 53.902 320.781 54.5018 320.781 56.3868V58.529C320.781 60.4997 319.849 61.3566 317.984 61.3566H313.492C311.543 61.3566 310.695 60.4141 310.695 58.529Z" fill="#1A5632"></path>
  <path d="M328.154 47.1328H325.781V61.3566H328.154V47.1328Z" fill="#1A5632"></path>
  <path d="M336.718 49.2749H332.734V47.1328H343.159V49.2749H339.176V61.3566H336.718V49.2749Z" fill="#1A5632"></path>
  <path d="M351.294 56.3868L346.633 47.1328H349.26L352.566 53.902L355.871 47.1328H358.498L353.752 56.3868V61.3566H351.294V56.3868Z" fill="#1A5632"></path>
</svg>
